HIERARCHY
ROOT Hips
{
	OFFSET 0.000000 0.000000 0.000000
	CHANNELS 6 Xposition Yposition Zposition Zrotation Yrotation Xrotation 
	JOINT LHipJoint
	{
		OFFSET 0.000000 0.000000 0.000000
		CHANNELS 3 Zrotation Yrotation Xrotation
		JOINT LeftUpLeg
		{
			OFFSET 1.363060 -1.794630 0.839290
			CHANNELS 3 Zrotation Yrotation Xrotation
			JOINT LeftLeg
			{
				OFFSET 2.448110 -6.726130 0.000000
				CHANNELS 3 Zrotation Yrotation Xrotation
				JOINT LeftFoot
				{
					OFFSET 2.562200 -7.039590 0.000000
					CHANNELS 3 Zrotation Yrotation Xrotation
					JOINT LeftToeBase
					{
						OFFSET 0.157640 -0.433110 2.322550
						CHANNELS 3 Zrotation Yrotation Xrotation
						End Site
						{
							OFFSET 0.000000 0.000000 0.000000
						}
					}
				}
			}
		}
	}
	JOINT RHipJoint
	{
		OFFSET 0.000000 0.000000 0.000000
		CHANNELS 3 Zrotation Yrotation Xrotation
		JOINT RightUpLeg
		{
			OFFSET -1.305520 -1.794630 0.839290
			CHANNELS 3 Zrotation Yrotation Xrotation
			JOINT RightLeg
			{
				OFFSET -2.542530 -6.985550 0.000000
				CHANNELS 3 Zrotation Yrotation Xrotation
				JOINT RightFoot
				{
					OFFSET -2.568260 -7.056230 0.000000
					CHANNELS 3 Zrotation Yrotation Xrotation
					JOINT RightToeBase
					{
						OFFSET -0.164730 -0.452590 2.363150
						CHANNELS 3 Zrotation Yrotation Xrotation
						End Site
						{
							OFFSET 0.000000 0.000000 0.000000
						}
					}
				}
			}
		}
	}
}
MOTION
Frames: 33
Frame Time: 0.008333
13.783557 16.461100 1.026616 125.615079 -86.809936 -91.558965 -9.086298 0.067314 3.008415 -12.366850 -3.765201 -55.157068 -2.223623 1.023675 35.201827 3.721501 13.532806 -17.618811 -1.859900 0.000000 -37.907900 8.756108 -0.102300 3.244974 7.634859 1.485579 -56.951268 2.426742 -2.355047 38.092429 -2.194709 -4.167530 -17.725170 0.673700 -0.000001 -56.736200
13.780791 16.374165 1.027944 123.387905 -86.740990 -88.560161 -9.006805 0.045846 3.074379 -12.524240 -4.234095 -57.050135 -2.187871 1.246826 37.220193 3.793447 13.467198 -18.451568 -2.063100 -0.000000 -37.604500 8.799538 0.001468 3.299917 7.498765 1.515377 -59.022066 2.357613 -2.641598 40.319515 -2.219968 -3.992078 -18.596810 0.767600 0.000000 -56.572400
13.778121 16.283230 1.029268 120.949466 -86.675714 -85.354382 -8.930428 0.022787 3.140981 -12.663887 -4.717859 -58.952028 -2.141639 1.476114 39.262954 3.862769 13.401244 -19.277841 -2.264400 -0.000000 -37.347600 8.844210 0.110269 3.353561 7.357144 1.541945 -61.087196 2.277674 -2.929674 42.551820 -2.250038 -3.849390 -19.458563 0.859500 0.000000 -56.427900
13.775345 16.188448 1.030589 118.317439 -86.610442 -81.957400 -8.856930 -0.001954 3.208488 -12.784867 -5.218799 -60.857513 -2.084459 1.709527 41.320367 3.930030 13.339925 -20.092822 -2.463000 0.000001 -37.135700 8.890013 0.224794 3.407076 7.204903 1.569772 -63.144066 2.185347 -3.217505 44.784356 -2.286545 -3.747427 -20.306993 0.951000 0.000000 -56.303799
13.772470 16.090080 1.031963 115.542026 -86.542376 -78.420977 -8.786913 -0.029087 3.276321 -12.885478 -5.735900 -62.759807 -2.015999 1.945216 43.383564 3.995543 13.287101 -20.892539 -2.658500 0.000000 -36.967900 8.935801 0.345093 3.461103 7.038814 1.603615 -65.186122 2.079584 -3.502883 47.009224 -2.330852 -3.693198 -21.138196 1.043900 0.000000 -56.200000
13.769372 15.988431 1.033511 112.680053 -86.469082 -74.801502 -8.720817 -0.059321 3.344170 -12.963641 -6.267947 -64.653731 -1.936227 2.181338 45.444492 4.059876 13.246408 -21.675521 -2.851200 0.000000 -36.838200 8.980532 0.470901 3.516368 6.856124 1.647344 -67.208151 1.959961 -3.783799 49.219214 -2.383682 -3.690362 -21.949854 1.140300 0.000000 -56.113600
13.766060 15.883872 1.035356 109.826268 -86.391950 -71.196850 -8.660330 -0.094719 3.410142 -13.015352 -6.806307 -66.534079 -1.845447 2.416694 47.497934 4.122978 13.218302 -22.442939 -3.041700 0.000000 -36.734400 9.021506 0.600252 3.573262 6.659363 1.708181 -69.200128 1.827201 -4.057640 51.401993 -2.445559 -3.740625 -22.741291 1.242000 0.000000 -56.035300
13.762514 15.776755 1.037531 106.988745 -86.306026 -67.614809 -8.603956 -0.134703 3.475837 -13.041511 -7.359375 -68.394936 -1.743491 2.648753 49.534187 4.186743 13.211571 -23.192645 -3.231300 -0.000001 -36.657400 9.059794 0.734301 3.631546 6.441740 1.780938 -71.162807 1.681239 -4.324129 53.558343 -2.515433 -3.840504 -23.511001 1.350000 -0.000000 -55.966900
13.746800 15.660530 1.057344 90.726289 -86.407042 -50.341926 -8.535254 -0.191766 3.881458 -12.354490 -8.752190 -70.791883 -1.513631 2.814719 51.630793 4.276718 13.321932 -23.716358 -3.355599 -0.000000 -36.884200 9.096644 0.797729 3.646513 6.792158 1.381044 -73.389456 1.628025 -4.661871 55.643926 -2.610529 -3.963115 -24.372396 1.481900 0.000000 -55.749500
13.742326 15.549153 1.060504 88.672890 -86.272005 -47.557545 -8.487995 -0.241984 3.941749 -12.319308 -9.298571 -72.605260 -1.393697 3.034456 53.612804 4.341595 13.355825 -24.439032 -3.547800 -0.000000 -36.821500 9.127051 0.937802 3.710622 6.536739 1.500120 -75.278693 1.456954 -4.912642 57.729799 -2.694197 -4.144892 -25.106165 1.605901 0.000000 -55.667700
13.737453 15.436313 1.064238 86.794860 -86.141132 -44.959319 -8.445356 -0.300390 3.998653 -12.251293 -9.842005 -74.390204 -1.264657 3.248213 55.570464 4.408473 13.413206 -25.156239 -3.744500 0.000000 -36.742901 9.152106 1.077279 3.775588 6.269806 1.636107 -77.122184 1.278017 -5.153023 59.769495 -2.782078 -4.355741 -25.825066 1.737500 0.000000 -55.570600
13.732055 15.322284 1.068544 85.097249 -86.018136 -42.551834 -8.407119 -0.367214 4.051938 -12.149085 -10.377883 -76.145350 -1.127180 3.455577 57.503131 4.477652 13.494218 -25.870939 -3.947100 -0.000000 -36.640600 9.171801 1.214796 3.840933 5.995719 1.788558 -78.918004 1.093100 -5.383096 61.761263 -2.872467 -4.586558 -26.532124 1.876100 0.000000 -55.454800
13.726226 15.207413 1.073397 83.573406 -85.906203 -40.331349 -8.372556 -0.442366 4.101174 -12.012745 -10.902402 -77.870217 -0.981926 3.656496 59.410496 4.549201 13.598407 -26.584590 -4.156800 0.000000 -36.509601 9.186453 1.349845 3.905753 5.718138 1.955998 -80.665168 0.903709 -5.603292 63.704880 -2.963783 -4.829371 -27.229298 2.020900 0.000000 -55.320700
13.719882 15.091962 1.078696 82.213901 -85.807971 -38.289457 -8.341296 -0.525208 4.146161 -11.843661 -11.410914 -79.562634 -0.829617 3.850987 61.291854 4.622819 13.724651 -27.296184 -4.373500 -0.000000 -36.351800 9.196600 1.481666 3.969382 5.441375 2.136795 -82.361454 0.711196 -5.813951 65.600059 -3.054615 -5.077268 -27.917430 2.170800 0.000000 -55.171400
13.713098 14.976190 1.084351 80.999728 -85.724658 -36.408661 -8.312554 -0.614855 4.186569 -11.644446 -11.900697 -81.222486 -0.670952 4.039355 63.146652 4.698025 13.871161 -28.003458 -4.596600 -0.000000 -36.171800 9.202929 1.610510 4.030969 5.168115 2.328398 -84.008301 0.516364 -6.015869 67.448519 -3.144064 -5.326049 -28.596363 2.324700 0.000000 -55.013100
13.705934 14.860388 1.090222 79.906633 -85.657619 -34.667595 -8.285883 -0.710510 4.221071 -11.418897 -12.366856 -82.846973 -0.506684 4.222146 64.974895 4.773702 14.034425 -28.702771 -4.824900 -0.000000 -35.976900 9.205979 1.736514 4.088575 4.903497 2.527857 -85.603243 0.320154 -6.209771 69.251192 -3.231263 -5.571967 -29.265584 2.481800 0.000000 -54.849400
13.698313 14.744718 1.096034 78.925179 -85.603570 -33.054254 -8.260666 -0.809809 4.252516 -11.171831 -12.812596 -84.438281 -0.337373 4.399231 66.771953 4.849466 14.213745 -29.385085 -5.055701 0.000000 -35.787400 9.206890 1.859918 4.145184 4.643006 2.734653 -87.152872 0.121409 -6.395643 71.010328 -3.316899 -5.820133 -29.918209 2.641700 0.000000 -54.703600
13.690360 14.629512 1.101715 78.027377 -85.563479 -31.546080 -8.236696 -0.912365 4.277386 -10.909152 -13.230679 -85.989032 -0.164058 4.571408 68.537543 4.923596 14.403465 -30.047360 -5.287100 0.000000 -35.609100 9.205896 1.981347 4.196450 4.394028 2.943438 -88.649089 -0.078498 -6.574283 72.725297 -3.400407 -6.067998 -30.555301 2.804100 -0.000000 -54.569100
13.682114 14.515010 1.107100 77.195242 -85.534528 -30.126134 -8.213484 -1.016725 4.295158 -10.637208 -13.620995 -87.496005 0.012348 4.738878 70.267747 4.995023 14.600073 -30.683345 -5.516400 -0.000000 -35.454100 9.203595 2.101695 4.241713 4.155937 3.151404 -90.091554 -0.279783 -6.745934 74.396500 -3.482192 -6.318936 -31.173002 2.969000 -0.000000 -54.451800
13.673471 14.401468 1.112008 76.420548 -85.513876 -28.784258 -8.191011 -1.121025 4.308748 -10.359977 -13.985781 -88.961362 0.191090 4.901612 71.957195 5.063409 14.801497 -31.286986 -5.741100 0.000000 -35.336300 9.200341 2.220469 4.284937 3.923757 3.361594 -91.485102 -0.483606 -6.909704 76.023097 -3.563876 -6.581809 -31.765136 3.137500 0.000000 -54.366200
13.664626 14.289303 1.116345 75.690783 -85.498556 -27.515260 -8.168876 -1.224797 4.313097 -10.087576 -14.321475 -90.369750 0.370538 5.059781 73.602071 5.127423 15.002703 -31.858761 -5.960000 -0.000000 -35.251500 9.196530 2.339539 4.319954 3.701071 3.563984 -92.817041 -0.688378 -7.066453 77.603998 -3.644630 -6.852959 -32.335394 3.309400 0.000001 -54.293600
13.655401 14.178765 1.120033 75.001223 -85.486551 -26.311374 -8.147292 -1.326544 4.312441 -9.820981 -14.631493 -91.726443 0.549899 5.213267 75.197067 5.187330 15.201785 -32.397343 -6.171700 0.000000 -35.204800 9.192108 2.457641 4.352513 3.481453 3.765258 -94.093850 -0.895120 -7.214734 79.137115 -3.726347 -7.141384 -32.879392 3.486400 -0.000000 -54.242300
13.645740 14.070155 1.123095 74.347274 -85.475165 -25.170210 -8.126029 -1.425951 4.303320 -9.567402 -14.915280 -93.019880 0.727650 5.361929 76.738894 5.242953 15.396160 -32.908519 -6.377300 -0.000000 -35.182800 9.187368 2.576033 4.378353 3.266070 3.958092 -95.306477 -1.102111 -7.355170 80.620961 -3.808210 -7.442110 -33.402799 3.668200 -0.000000 -54.191700
13.635596 13.963908 1.125503 73.734613 -85.461973 -24.099801 -8.105234 -1.522258 4.286768 -9.330710 -15.174961 -94.245403 0.902491 5.505488 78.223290 5.294684 15.583999 -33.397685 -6.577500 0.000000 -35.175200 9.182439 2.694299 4.398949 3.051456 4.142263 -96.452399 -1.308814 -7.487157 82.053775 -3.890430 -7.755066 -33.907971 3.855100 0.000000 -54.134500
13.624792 13.860231 1.127362 73.154175 -85.446122 -23.089969 -8.084913 -1.615198 4.263307 -9.111870 -15.412793 -95.401632 1.073525 5.643739 79.648642 5.343325 15.765022 -33.872434 -6.774500 -0.000000 -35.167700 9.177358 2.812286 4.414724 2.836139 4.317490 -97.531043 -1.514147 -7.610738 83.434579 -3.972882 -8.077352 -34.399887 4.047300 0.000000 -54.059100
13.613298 13.759530 1.128736 72.609459 -85.426044 -22.146922 -8.065151 -1.704575 4.233363 -8.913063 -15.631337 -96.483661 1.239746 5.776331 81.013349 5.389548 15.938806 -34.340504 -6.970500 0.000000 -35.146500 9.172335 2.929751 4.425750 2.618962 4.481596 -98.539181 -1.716919 -7.725996 84.762539 -4.054931 -8.404129 -34.883369 4.244200 -0.000000 -53.956400
13.600788 13.661884 1.129762 72.093901 -85.401462 -21.259808 -8.046050 -1.790022 4.199035 -8.732697 -15.834521 -97.494328 1.400767 5.902990 82.318013 5.434432 16.106521 -34.808490 -7.167500 0.000001 -35.100700 9.167661 3.046015 4.433591 2.399478 4.634906 -99.479973 -1.916144 -7.833319 86.038113 -4.136163 -8.730869 -35.362698 4.445100 0.000000 -53.822500
13.587196 13.567542 1.130555 71.603304 -85.372148 -20.424881 -8.027727 -1.871604 4.161274 -8.569914 -16.025126 -98.432587 1.556297 6.023359 83.563527 5.478645 16.269457 -35.280632 -7.367300 0.000000 -35.024600 9.163619 3.160724 4.438330 2.178347 4.775717 -100.352548 -2.110805 -7.933165 87.261521 -4.215868 -9.052832 -35.840749 4.648900 0.000001 -53.658100
13.572373 13.476648 1.131236 71.124318 -85.338269 -19.626761 -8.010109 -1.949240 4.122270 -8.421327 -16.207205 -99.304271 1.706654 6.137256 84.752356 5.522822 16.429523 -35.757473 -7.570400 -0.000000 -34.919600 9.160377 3.273350 4.441208 1.956909 4.904286 -101.162276 -2.300325 -8.026253 88.433848 -4.293693 -9.367024 -36.318211 4.854500 0.000000 -53.470300
13.556136 13.389188 1.131900 70.650900 -85.300171 -18.855375 -7.993370 -2.022752 4.084404 -8.283576 -16.384374 -100.114501 1.852291 6.244358 85.886810 5.567273 16.588622 -36.236011 -7.776500 -0.000000 -34.793900 9.158304 3.383167 4.443563 1.736631 5.020195 -101.913834 -2.484347 -8.113232 89.556147 -4.369273 -9.671474 -36.793240 5.060699 -0.000000 -53.271600
13.538416 13.305257 1.132685 70.168370 -85.259146 -18.093512 -7.977556 -2.092344 4.049224 -8.152566 -16.558833 -100.869786 1.993992 6.344523 86.969940 5.612099 16.749251 -36.710348 -7.984200 -0.000000 -34.661700 9.157365 3.489550 4.445771 1.521338 5.124520 -102.611909 -2.662660 -8.194753 90.629240 -4.442561 -9.966302 -37.262363 5.266600 0.000001 -53.077300
13.518979 13.224723 1.133548 69.679261 -85.214061 -17.337667 -7.962706 -2.157142 4.020702 -8.024819 -16.735639 -101.579710 2.132462 6.437455 88.002762 5.657328 16.913537 -37.170708 -8.191000 -0.000000 -34.540600 9.158089 3.591552 4.451121 1.310705 5.217342 -103.266161 -2.835763 -8.271196 91.653988 -4.513916 -10.254396 -37.718908 5.471300 0.000000 -52.906700
13.497690 13.147559 1.134486 69.185236 -85.165079 -16.585057 -7.948788 -2.216938 4.000757 -7.897177 -16.917443 -102.251899 2.268356 6.522995 88.986605 5.702720 17.083230 -37.607451 -8.394200 0.000000 -34.448600 9.160519 3.688586 4.461043 1.105988 5.299914 -103.883754 -3.003958 -8.342840 92.630530 -4.583754 -10.539127 -38.156592 5.674500 0.000000 -52.775800
